<svg width="198" height="70" viewBox="0 0 198 70" fill="none" xmlns="http://www.w3.org/2000/svg">
<g clip-path="url(#clip0_4_12)">
<path d="M7.34656 35.7635C6.90719 42.0015 8.38667 48.2246 11.5864 53.5974C14.7861 58.9702 19.5529 63.2356 25.2469 65.8209C30.9409 68.4062 37.2895 69.1877 43.4405 68.0606C49.5916 66.9334 55.2505 63.9514 59.6578 59.5151C64.065 55.0787 67.0096 49.4002 68.0963 43.2419C69.1829 37.0836 68.3596 30.7403 65.7368 25.0634C63.1141 19.3866 58.8174 14.648 53.4236 11.4837C48.0298 8.31944 41.7971 6.88098 35.5622 7.36142L35.6774 8.85698C41.6072 8.40006 47.5348 9.76812 52.6646 12.7775C57.7944 15.7869 61.8807 20.2936 64.3751 25.6926C66.8695 31.0915 67.6525 37.1244 66.6191 42.9813C65.5856 48.8381 62.7852 54.2387 58.5936 58.4579C54.4021 62.6771 49.0201 65.5131 43.1702 66.5851C37.3202 67.6571 31.2824 66.9138 25.8671 64.4551C20.4518 61.9963 15.9183 57.9397 12.8752 52.8299C9.83206 47.72 8.42499 41.8015 8.84285 35.8689L7.34656 35.7635ZM2.16666 35L2.16666 35.75H2.91666H9.33332H10.0833L10.0833 35C10.0833 28.4801 12.6389 22.2199 17.2017 17.5626C21.7646 12.9053 27.9711 10.2221 34.4897 10.0886L35.2396 10.0732L35.2242 9.32336L35.0928 2.90804L35.0774 2.1582L34.3276 2.17356C25.7379 2.34951 17.5594 5.8853 11.5468 12.0223C5.53422 18.1593 2.16666 26.4085 2.16666 35Z" stroke="#00A7E1" stroke-width="1.5"/>
<rect x="36.4583" y="36.4583" width="2.91667" height="2.91667" rx="1" fill="#00A7E1"/>
<circle cx="37.9167" cy="37.9167" r="9.5" stroke="#00A7E1" stroke-width="1.5"/>
<path d="M44.2965 57.3101C33.5858 60.8337 22.0467 55.0073 18.5232 44.2966C14.9996 33.5859 20.826 22.0468 31.5367 18.5233C42.2474 14.9997 53.7865 20.8261 57.31 31.5368C60.8336 42.2475 55.0072 53.7866 44.2965 57.3101Z" stroke="#00A7E1" stroke-width="1.5" stroke-linecap="round" stroke-linejoin="round" stroke-dasharray="5 5"/>
<path d="M91.4375 30.6307C91.3466 29.8239 90.9716 29.1989 90.3125 28.7557C89.6534 28.3068 88.8239 28.0824 87.8239 28.0824C87.108 28.0824 86.4886 28.196 85.9659 28.4233C85.4432 28.6449 85.0369 28.9517 84.7472 29.3438C84.4631 29.7301 84.321 30.1705 84.321 30.6648C84.321 31.0795 84.4176 31.4375 84.6108 31.7386C84.8097 32.0398 85.0682 32.2926 85.3864 32.4972C85.7102 32.696 86.0568 32.8636 86.4261 33C86.7955 33.1307 87.1506 33.2386 87.4915 33.3239L89.196 33.767C89.7528 33.9034 90.3239 34.0881 90.9091 34.321C91.4943 34.554 92.0369 34.8608 92.5369 35.2415C93.0369 35.6222 93.4403 36.0938 93.7472 36.6562C94.0597 37.2188 94.2159 37.892 94.2159 38.6761C94.2159 39.6648 93.9602 40.5426 93.4489 41.3097C92.9432 42.0767 92.2074 42.6818 91.2415 43.125C90.2813 43.5682 89.1193 43.7898 87.7557 43.7898C86.4489 43.7898 85.3182 43.5824 84.3636 43.1676C83.4091 42.7528 82.6619 42.1648 82.1222 41.4034C81.5824 40.6364 81.2841 39.7273 81.2273 38.6761H83.8693C83.9205 39.3068 84.125 39.8324 84.483 40.2528C84.8466 40.6676 85.3097 40.9773 85.8722 41.1818C86.4403 41.3807 87.0625 41.4801 87.7386 41.4801C88.483 41.4801 89.1449 41.3636 89.7244 41.1307C90.3097 40.892 90.7699 40.5625 91.1051 40.142C91.4403 39.7159 91.608 39.2187 91.608 38.6506C91.608 38.1335 91.4602 37.7102 91.1648 37.3807C90.875 37.0511 90.4801 36.7784 89.9801 36.5625C89.4858 36.3466 88.9261 36.1562 88.3011 35.9915L86.2386 35.429C84.8409 35.0483 83.733 34.4886 82.9148 33.75C82.1023 33.0114 81.696 32.0341 81.696 30.8182C81.696 29.8125 81.9688 28.9347 82.5142 28.1847C83.0597 27.4347 83.7983 26.8523 84.7301 26.4375C85.6619 26.017 86.7131 25.8068 87.8835 25.8068C89.0653 25.8068 90.108 26.0142 91.0114 26.429C91.9205 26.8438 92.6364 27.4148 93.1591 28.142C93.6818 28.8636 93.9545 29.6932 93.9773 30.6307H91.4375ZM105.451 38.071V30.4091H108.008V43.5H105.502V41.233H105.366C105.065 41.9318 104.582 42.5142 103.917 42.9801C103.258 43.4403 102.437 43.6705 101.454 43.6705C100.613 43.6705 99.8686 43.4858 99.2209 43.1165C98.5788 42.7415 98.0732 42.1875 97.7038 41.4545C97.3402 40.7216 97.1584 39.8153 97.1584 38.7358V30.4091H99.7067V38.429C99.7067 39.321 99.9538 40.0312 100.448 40.5597C100.942 41.0881 101.585 41.3523 102.374 41.3523C102.852 41.3523 103.326 41.233 103.798 40.9943C104.275 40.7557 104.67 40.3949 104.982 39.9119C105.3 39.429 105.457 38.8153 105.451 38.071ZM111.432 48.4091V30.4091H113.92V32.5312H114.134C114.281 32.2585 114.494 31.9432 114.773 31.5852C115.051 31.2273 115.438 30.9148 115.932 30.6477C116.426 30.375 117.08 30.2386 117.892 30.2386C118.949 30.2386 119.892 30.5057 120.722 31.0398C121.551 31.5739 122.202 32.3437 122.673 33.3494C123.151 34.3551 123.389 35.5653 123.389 36.9801C123.389 38.3949 123.153 39.608 122.682 40.6193C122.21 41.625 121.563 42.4006 120.739 42.946C119.915 43.4858 118.974 43.7557 117.918 43.7557C117.122 43.7557 116.472 43.6222 115.966 43.3551C115.466 43.0881 115.074 42.7756 114.79 42.4176C114.506 42.0597 114.287 41.7415 114.134 41.4631H113.98V48.4091H111.432ZM113.929 36.9545C113.929 37.875 114.063 38.6818 114.33 39.375C114.597 40.0682 114.983 40.6108 115.489 41.0028C115.994 41.3892 116.614 41.5824 117.347 41.5824C118.108 41.5824 118.744 41.3807 119.256 40.9773C119.767 40.5682 120.153 40.0142 120.415 39.3153C120.682 38.6165 120.815 37.8295 120.815 36.9545C120.815 36.0909 120.685 35.3153 120.423 34.6278C120.168 33.9403 119.781 33.3977 119.264 33C118.753 32.6023 118.114 32.4034 117.347 32.4034C116.608 32.4034 115.983 32.5937 115.472 32.9744C114.966 33.3551 114.582 33.8864 114.321 34.5682C114.06 35.25 113.929 36.0455 113.929 36.9545ZM130.054 43.7898C129.224 43.7898 128.474 43.6364 127.804 43.3295C127.134 43.017 126.602 42.5653 126.21 41.9744C125.824 41.3835 125.631 40.6591 125.631 39.8011C125.631 39.0625 125.773 38.4545 126.057 37.9773C126.341 37.5 126.724 37.1222 127.207 36.8438C127.69 36.5653 128.23 36.3551 128.827 36.2131C129.423 36.071 130.031 35.9631 130.651 35.8892C131.435 35.7983 132.071 35.7244 132.56 35.6676C133.048 35.6051 133.403 35.5057 133.625 35.3693C133.847 35.233 133.957 35.0114 133.957 34.7045V34.6449C133.957 33.9006 133.747 33.3239 133.327 32.9148C132.912 32.5057 132.293 32.3011 131.469 32.3011C130.611 32.3011 129.935 32.4915 129.44 32.8722C128.952 33.2472 128.614 33.6648 128.426 34.125L126.031 33.5795C126.315 32.7841 126.73 32.142 127.276 31.6534C127.827 31.1591 128.46 30.8011 129.176 30.5795C129.892 30.3523 130.645 30.2386 131.435 30.2386C131.957 30.2386 132.511 30.3011 133.097 30.4261C133.688 30.5455 134.239 30.767 134.75 31.0909C135.267 31.4148 135.69 31.8778 136.02 32.4801C136.349 33.0767 136.514 33.8523 136.514 34.8068V43.5H134.026V41.7102H133.923C133.759 42.0398 133.511 42.3636 133.182 42.6818C132.852 43 132.429 43.2642 131.912 43.4744C131.395 43.6847 130.776 43.7898 130.054 43.7898ZM130.608 41.7443C131.313 41.7443 131.915 41.6051 132.415 41.3267C132.92 41.0483 133.304 40.6847 133.565 40.2358C133.832 39.7812 133.966 39.2955 133.966 38.7784V37.0909C133.875 37.1818 133.699 37.267 133.438 37.3466C133.182 37.4205 132.889 37.4858 132.56 37.5426C132.23 37.5937 131.909 37.642 131.597 37.6875C131.284 37.7273 131.023 37.7614 130.812 37.7898C130.318 37.8523 129.866 37.9574 129.457 38.1051C129.054 38.2528 128.73 38.4659 128.486 38.7443C128.247 39.017 128.128 39.3807 128.128 39.8352C128.128 40.4659 128.361 40.9432 128.827 41.267C129.293 41.5852 129.886 41.7443 130.608 41.7443ZM140.113 26.0455H143.309L148.866 39.6136H149.07L154.627 26.0455H157.823V43.5H155.317V30.8693H155.156L150.008 43.4744H147.928L142.781 30.8608H142.619V43.5H140.113V26.0455ZM166.962 43.7642C165.734 43.7642 164.663 43.483 163.749 42.9205C162.834 42.358 162.124 41.571 161.618 40.5597C161.112 39.5483 160.859 38.3665 160.859 37.0142C160.859 35.6562 161.112 34.4687 161.618 33.4517C162.124 32.4347 162.834 31.6449 163.749 31.0824C164.663 30.5199 165.734 30.2386 166.962 30.2386C168.189 30.2386 169.26 30.5199 170.175 31.0824C171.089 31.6449 171.8 32.4347 172.305 33.4517C172.811 34.4687 173.064 35.6562 173.064 37.0142C173.064 38.3665 172.811 39.5483 172.305 40.5597C171.8 41.571 171.089 42.358 170.175 42.9205C169.26 43.483 168.189 43.7642 166.962 43.7642ZM166.97 41.625C167.766 41.625 168.425 41.4148 168.947 40.9943C169.47 40.5739 169.857 40.0142 170.107 39.3153C170.362 38.6165 170.49 37.8466 170.49 37.0057C170.49 36.1705 170.362 35.4034 170.107 34.7045C169.857 34 169.47 33.4347 168.947 33.0085C168.425 32.5824 167.766 32.3693 166.97 32.3693C166.169 32.3693 165.504 32.5824 164.976 33.0085C164.453 33.4347 164.064 34 163.808 34.7045C163.558 35.4034 163.433 36.1705 163.433 37.0057C163.433 37.8466 163.558 38.6165 163.808 39.3153C164.064 40.0142 164.453 40.5739 164.976 40.9943C165.504 41.4148 166.169 41.625 166.97 41.625ZM182.019 30.4091V32.4545H174.869V30.4091H182.019ZM176.786 27.2727H179.335V39.6562C179.335 40.1506 179.408 40.5227 179.556 40.7727C179.704 41.017 179.894 41.1847 180.127 41.2756C180.366 41.3608 180.624 41.4034 180.903 41.4034C181.107 41.4034 181.286 41.3892 181.44 41.3608C181.593 41.3324 181.712 41.3097 181.798 41.2926L182.258 43.3977C182.11 43.4545 181.9 43.5114 181.627 43.5682C181.354 43.6307 181.013 43.6648 180.604 43.6705C179.934 43.6818 179.309 43.5625 178.729 43.3125C178.15 43.0625 177.681 42.6761 177.323 42.1534C176.965 41.6307 176.786 40.9744 176.786 40.1847V27.2727ZM190.212 43.7642C188.984 43.7642 187.913 43.483 186.999 42.9205C186.084 42.358 185.374 41.571 184.868 40.5597C184.362 39.5483 184.109 38.3665 184.109 37.0142C184.109 35.6562 184.362 34.4687 184.868 33.4517C185.374 32.4347 186.084 31.6449 186.999 31.0824C187.913 30.5199 188.984 30.2386 190.212 30.2386C191.439 30.2386 192.51 30.5199 193.425 31.0824C194.339 31.6449 195.05 32.4347 195.555 33.4517C196.061 34.4687 196.314 35.6562 196.314 37.0142C196.314 38.3665 196.061 39.5483 195.555 40.5597C195.05 41.571 194.339 42.358 193.425 42.9205C192.51 43.483 191.439 43.7642 190.212 43.7642ZM190.22 41.625C191.016 41.625 191.675 41.4148 192.197 40.9943C192.72 40.5739 193.107 40.0142 193.357 39.3153C193.612 38.6165 193.74 37.8466 193.74 37.0057C193.74 36.1705 193.612 35.4034 193.357 34.7045C193.107 34 192.72 33.4347 192.197 33.0085C191.675 32.5824 191.016 32.3693 190.22 32.3693C189.419 32.3693 188.754 32.5824 188.226 33.0085C187.703 33.4347 187.314 34 187.058 34.7045C186.808 35.4034 186.683 36.1705 186.683 37.0057C186.683 37.8466 186.808 38.6165 187.058 39.3153C187.314 40.0142 187.703 40.5739 188.226 40.9943C188.754 41.4148 189.419 41.625 190.22 41.625Z" fill="#00A7E1"/>
</g>
<defs>
<clipPath id="clip0_4_12">
<rect width="198" height="70" fill="white"/>
</clipPath>
</defs>
</svg>
